<?xml version="1.0" encoding="utf-8"?>
<svg version="1.1" xmlns:xlink="http://www.w3.org/1999/xlink" width="16px" height="16px" xmlns="http://www.w3.org/2000/svg">
  <g transform="matrix(1 0 0 1 -20 -149 )">
    <path d="M 8.911764703125 5.82047059375  C 8.62682353125 5.9256470625  8.25152940625 5.983529421875  7.854588234375 5.98352940625  C 7.4576470625 5.98352940625  7.0823529375 5.925647046875  6.797411765625 5.82047059375  L 0.932 3.654117640625  C 0.45152940625 3.476470578125  0.38 3.217647046875  0.38 3.079294125  C 0.38 2.940705890625  0.451764703125 2.681882359375  0.932 2.504235296875  L 6.79717646875 0.337882359375  C 7.082117640625 0.232941171875  7.457411765625 0.17482353125  7.8543529375 0.17482353125  C 8.25152940625 0.17482353125  8.62682353125 0.232705890625  8.911764703125 0.337882359375  L 14.776941171875 2.504235296875  C 15.257411765625 2.681882359375  15.328941171875 2.940705890625  15.328941171875 3.079294125  C 15.328941171875 3.2176470625  15.25717646875 3.47647059375  14.776941171875 3.654117640625  L 8.911764703125 5.82047059375  Z M 7.5296470625 14.791058828125  C 7.529411765625 15.350352953125  7.132705890625 15.756705890625  6.603294125 15.756705875  C 6.4696470625 15.756705875  6.32658825 15.730823515625  6.19082353125 15.67952940625  L 1.05317646875 13.719294125  C 0.45482353125 13.494117640625  0 12.796235296875  0 12.09647059375  L 0 5.559294125  C 0 4.972705890625  0.314588234375 4.5936470625  0.80117646875 4.5936470625  C 0.925411765625 4.5936470625  1.05717646875 4.619529421875  1.19317646875 4.67082353125  L 6.402588234375 6.63082353125  C 7.02752940625 6.86611765625  7.5296470625 7.579058828125  7.5296470625 8.253882359375  L 7.5296470625 14.791058828125  Z M 9.6503529375 15.624705875  C 9.51388234375 15.675764703125  9.36117646875 15.6470588125  9.23552940625 15.647058828125  L 9.263294125 15.647058828125  C 8.772235296875 15.647058828125  8.470588234375 15.36847059375  8.470588234375 14.791058828125  L 8.470588234375 8.253882359375  C 8.470588234375 7.55647059375  8.899058828125 6.85882353125  9.504705875 6.63082353125  L 14.6343529375 4.671058828125  C 14.775011476476 4.6208450921358  14.9231213834972 4.59467529677262  15.07247059375 4.5936470625  C 15.599058828125 4.5936470625  16 4.99082353125  16 5.559294125  L 16 12.09647059375  C 16 12.7736470625  15.47482353125 13.48682353125  14.856 13.71952940625  L 9.6503529375 15.624705875  Z " fill-rule="nonzero" fill="#ffffff" stroke="none" transform="matrix(1 0 0 1 20 149 )" />
  </g>
</svg>