<?xml version="1.0" encoding="utf-8"?>
<svg version="1.1" xmlns:xlink="http://www.w3.org/1999/xlink" width="155px" height="34px" xmlns="http://www.w3.org/2000/svg">
  <g transform="matrix(1 0 0 1 -23 -90 )">
    <path d="M 24 107  A 16 16 0 0 1 40 91 L 161 91  A 16 16 0 0 1 177 107 A 16 16 0 0 1 161 123 L 40 123  A 16 16 0 0 1 24 107 Z " fill-rule="nonzero" fill="#ffffff" stroke="none" fill-opacity="0" />
    <path d="M 23.5 107  A 16.5 16.5 0 0 1 40 90.5 L 161 90.5  A 16.5 16.5 0 0 1 177.5 107 A 16.5 16.5 0 0 1 161 123.5 L 40 123.5  A 16.5 16.5 0 0 1 23.5 107 Z " stroke-width="1" stroke="#ffffff" fill="none" stroke-opacity="0.647058823529412" />
  </g>
</svg>