<?xml version="1.0" encoding="utf-8"?>
<svg version="1.1" xmlns:xlink="http://www.w3.org/1999/xlink" width="16px" height="16px" xmlns="http://www.w3.org/2000/svg">
  <g transform="matrix(1 0 0 1 -147 -99 )">
    <path d="M 15.1 15.05  C 15.3 14.85  15.3 14.6  15.1 14.45  L 11.5 10.9  C 12.45 9.85  13 8.45  13 6.9  C 13 3.5  10.25 0.799999999999999  6.9 0.799999999999999  C 3.5 0.799999999999999  0.800000000000001 3.55  0.800000000000001 6.9  C 0.800000000000001 10.3  3.55 13  6.9 13  C 8.45 13  9.85 12.45  10.9 11.5  L 14.5 15.05  C 14.65 15.2  14.95 15.2  15.1 15.05  Z M 6.95 12.15  C 4 12.2  1.6 9.8  1.6 6.9  C 1.6 4  3.95 1.6  6.9 1.6  C 9.85 1.6  12.2 3.95  12.2 6.9  C 12.2 8.3  11.65 9.6  10.75 10.55  C 10.7 10.55  10.7 10.6  10.65 10.6  C 10.6 10.65  10.6 10.65  10.6 10.7  C 9.65 11.6  8.35 12.15  6.95 12.15  Z " fill-rule="nonzero" fill="#ffffff" stroke="none" fill-opacity="0.647058823529412" transform="matrix(1 0 0 1 147 99 )" />
  </g>
</svg>