<?xml version="1.0" encoding="utf-8"?>
<svg version="1.1" xmlns:xlink="http://www.w3.org/1999/xlink" width="16px" height="16px" xmlns="http://www.w3.org/2000/svg">
  <g transform="matrix(1 0 0 1 -216 -40 )">
    <path d="M 16 1.09230769230769  C 16 0.690384615384615  15.675 0.365384615384616  15.2730769230769 0.365384615384615  L 0.726923076923077 0.365384615384615  C 0.325 0.365384615384615  0 0.690384615384615  0 1.09230769230769  L 0 1.81923076923077  C 0 2.22115384615385  0.325 2.54615384615385  0.726923076923077 2.54615384615385  L 15.2730769230769 2.54615384615385  C 15.675 2.54615384615385  16 2.22115384615385  16 1.81923076923077  L 16 1.09230769230769  Z M 15.9980769230769 7.63653846153846  C 16 7.23461538461538  15.675 6.90961538461538  15.2730769230769 6.90961538461538  L 5.81730769230769 6.90961538461538  C 5.41538461538462 6.90961538461538  5.09038461538462 7.23461538461538  5.09038461538462 7.63653846153846  L 5.09038461538462 8.36346153846154  C 5.09038461538462 8.76538461538462  5.41538461538461 9.09038461538461  5.81730769230769 9.09038461538461  L 15.2711538461538 9.09038461538461  C 15.6730769230769 9.09038461538461  15.9980769230769 8.76538461538462  15.9980769230769 8.36346153846154  L 15.9980769230769 7.63653846153846  Z M 16 14.1807692307692  C 16 13.7788461538462  15.675 13.4538461538462  15.2730769230769 13.4538461538462  L 0.726923076923077 13.4538461538462  C 0.325 13.4538461538462  0 13.7788461538462  0 14.1807692307692  L 0 14.9076923076923  C 0 15.3096153846154  0.325 15.6346153846154  0.726923076923077 15.6346153846154  L 15.2730769230769 15.6346153846154  C 15.675 15.6346153846154  16 15.3096153846154  16 14.9076923076923  L 16 14.1807692307692  Z M 2.38461538461538 10.0423076923077  C 2.71153846153846 10.3403846153846  3.27307692307692 10.1288461538462  3.27307692307692 9.70576923076923  L 3.27307692307692 6.29423076923077  C 3.27307692307692 5.87115384615385  2.71153846153846 5.65769230769231  2.38461538461538 5.95769230769231  L 0.517307692307692 7.66346153846154  C 0.313461538461539 7.85  0.313461538461539 8.15  0.517307692307692 8.33653846153846  L 2.38461538461538 10.0423076923077  Z " fill-rule="nonzero" fill="#ffffff" stroke="none" transform="matrix(1 0 0 1 216 40 )" />
  </g>
</svg>