<?xml version="1.0" encoding="utf-8"?>
<svg version="1.1" xmlns:xlink="http://www.w3.org/1999/xlink" width="16px" height="16px" xmlns="http://www.w3.org/2000/svg">
  <g transform="matrix(1 0 0 1 -1408 -40 )">
    <path d="M 8.04491228333333 15.9494736833333  C 12.4014035166667 15.9494736833333  15.9494736833333 12.3564912333333  15.9494736833333 8  C 15.9494736833333 3.59859648333333  12.4014035 0.050526316666667  8 0.050526316666667  C 3.59859648333333 0.0505263166666667  0.0505263166666667 3.59859648333333  0.0505263166666667 8  C 0.0505263166666667 12.3564912333333  3.5985965 15.9494736833333  7.95508771666667 15.9494736833333  L 8.04491228333333 15.9494736833333  Z M 4.63157895 11.4582456166667  C 3.68842105 11.6828070166667  2.79017543333333 11.9971929833333  2.25122806666667 12.4912280666667  C 1.35298245 11.3235087666667  0.7691228 9.88631578333334  0.67929825 8.31438596666667  L 4.22736841666667 8.31438596666667  C 4.22736841666667 9.03298245  4.31719298333333 10.2456140333333  4.63157895 11.4582456166667  Z M 0.724210533333333 7.68561403333333  C 0.769122816666667 6.11368421666667  1.30807018333333 4.67649123333333  2.20631578333333 3.50877193333333  C 2.74526315 4.00280701666667  3.64350876666667 4.36210526666667  4.63157895 4.58666666666667  C 4.36210526666667 5.79929825  4.2722807 6.96701755  4.2722807 7.68561403333333  L 0.724210533333333 7.68561403333333  Z M 11.36842105 4.58666666666667  C 12.3564912333333 4.36210526666667  13.2547368333333 4.00280701666667  13.7936842166667 3.50877193333333  C 14.6919298333333 4.67649123333333  15.2308772 6.11368421666667  15.32070175 7.68561403333333  L 11.7726315833333 7.68561403333333  C 11.7726315833333 6.96701755  11.6828070166667 5.79929825  11.36842105 4.58666666666667  Z M 10.7396491166667 4.67649123333333  C 11.0540350833333 5.88912281666667  11.0989473666667 7.05684211666667  11.14385965 7.68561403333333  L 8.31438596666667 7.68561403333333  L 8.31438596666667 4.90105263333333  C 9.03298245 4.90105263333333  9.88631578333333 4.81122806666667  10.7396491166667 4.67649123333333  Z M 10.56 4.09263158333333  C 9.79649123333333 4.22736843333333  8.98807018333333 4.2722807  8.31438596666667 4.2722807  L 8.31438596666667 0.858947366666667  C 9.48210526666667 1.4877193  10.1557894833333 2.79017543333333  10.56 4.09263158333333  Z M 5.44 4.09263158333333  C 5.79929825 2.79017545  6.51789473333333 1.53263158333333  7.68561403333333 0.858947366666666  L 7.68561403333333 4.2722807  C 7.01192981666667 4.2722807  6.20350876666667 4.18245613333333  5.44 4.09263158333333  Z M 5.26035088333333 4.72140351666667  C 6.1585965 4.85614036666667  7.05684211666667 4.90105263333333  7.68561403333333 4.90105263333333  L 7.68561403333333 7.68561403333333  L 4.85614035 7.68561403333333  C 4.85614035 7.0568421  4.94596491666667 5.8891228  5.26035088333333 4.72140351666667  Z M 5.26035088333333 11.36842105  C 4.94596491666667 10.1108771833333  4.90105263333333 8.9431579  4.85614035 8.31438596666667  L 7.68561403333333 8.31438596666667  L 7.68561403333333 11.14385965  C 7.0568421 11.14385965  6.20350876666667 11.1887719333333  5.26035088333333 11.36842105  Z M 5.44 11.9522807  C 6.20350876666667 11.81754385  7.01192981666667 11.7726315833333  7.68561403333333 11.7726315833333  L 7.68561403333333 15.1410526333333  C 6.51789473333333 14.5122807  5.84421051666667 13.25473685  5.44 11.9522807  Z M 10.56 11.9971929833333  C 10.1557894666667 13.25473685  9.48210526666667 14.5122807  8.31438596666667 15.1410526333333  L 8.31438596666667 11.7726315833333  C 8.98807018333333 11.7726315833333  9.79649123333333 11.86245615  10.56 11.9971929833333  Z M 10.7396491166667 11.36842105  C 9.88631578333333 11.2336842  8.98807016666667 11.14385965  8.31438596666667 11.14385965  L 8.31438596666667 8.31438596666667  L 11.14385965 8.31438596666667  C 11.14385965 8.9431579  11.0540350833333 10.1108772  10.7396491166667 11.36842105  Z M 11.36842105 11.4582456166667  C 11.6378947333333 10.2456140333333  11.7277193 9.03298246666667  11.7726315833333 8.31438596666667  L 15.32070175 8.31438596666667  C 15.2308771833333 9.88631578333333  14.6919298166667 11.3235087666667  13.7487719333333 12.4912280666667  C 13.2098245666667 11.9971929833333  12.31157895 11.6828070166667  11.36842105 11.4582456166667  Z M 9.34736841666667 0.814035083333333  C 10.9192982333333 1.08350876666667  12.31157895 1.89192981666667  13.3894736833333 3.05964911666667  C 12.9403508833333 3.46385965  12.1319298166667 3.7782456  11.2336842166667 3.95789473333333  C 10.8743859666667 2.79017543333333  10.2905263166667 1.62245613333333  9.34736841666667 0.814035083333333  Z M 2.61052631666667 3.05964911666667  C 3.68842105 1.89192981666667  5.08070175 1.08350876666667  6.65263158333333 0.814035083333333  C 5.70947368333333 1.62245613333333  5.12561403333333 2.79017543333333  4.76631578333333 4.00280701666667  C 3.86807018333333 3.77824561666667  3.05964911666667 3.46385965  2.61052631666667 3.05964911666667  Z M 6.65263158333333 15.1859649166667  C 5.08070176666667 14.9164912333333  3.68842105 14.1080701833333  2.6554386 12.98526315  C 3.1045614 12.5810526166667  3.91298246666667 12.2666666666667  4.81122806666667 12.08701755  C 5.17052631666667 13.25473685  5.75438596666667 14.42245615  6.65263158333333 15.1859649166667  Z M 13.3445614 12.98526315  C 12.31157895 14.1080701666667  10.91929825 14.9164912166667  9.34736841666667 15.1859649166667  C 10.2905263166667 14.3775438666667  10.8294736833333 13.25473685  11.1887719333333 12.08701755  C 12.08701755 12.2666666666667  12.8954386 12.5810526333333  13.3445614 12.98526315  Z " fill-rule="nonzero" fill="#ffffff" stroke="none" transform="matrix(1 0 0 1 1408 40 )" />
  </g>
</svg>